<svg viewBox="0 0 356.40522876 356.40522876" xmlns="http://www.w3.org/2000/svg"><g stroke-width="10"><path d="m287.45246023 137.71907757h-230.22222222c-7.36379666 0-13.33333333-5.96953667-13.33333333-13.33333333v-68.44444445c0-7.36379666 5.96953667-13.33333333 13.33333333-13.33333333h77.4196044c4.5191741 0 8.73074824 2.2891155 11.18870649 6.08139394l7.67226711 11.83721211c2.45795825 3.79227844 6.66953239 6.08139394 11.18870649 6.08139394h122.75293774c7.36379666 0 13.33333333 5.96953667 13.33333333 13.33333333v44.44444444c0 7.36379666-5.96953667 13.33333333-13.33333333 13.33333333z" fill="#79c178" stroke="#282828" stroke-miterlimit="10"/><path d="m33.65905216 86.66666667h277.37090635v207.5183903c0 11.36543201-9.2272888 20.59272081-20.59272081 20.59272081h-236.18546474c-11.36543201 0-20.59272081-9.2272888-20.59272081-20.59272081v-207.5183903z" fill="#79c178" stroke="#282828" stroke-linejoin="round"/><g stroke-miterlimit="10"><path d="m85.470661 128.552974v74.788646" fill="none" stroke="#fff"/><path d="m261.129708 126.353308v148.006102" fill="none" stroke="#fff"/><path d="m170.629161 200.19924h92.700213" fill="none" stroke="#fff"/><path d="m81.699804 132.638068 179.744142 132.922678" fill="none" stroke="#fff"/><path d="m175.028493 198.62805-45.250273 67.87541" fill="none" stroke="#fff"/><path d="m172.514589 134.523496v66.30422" fill="none" stroke="#fff"/><circle cx="129.482514" cy="265.560746" fill="#feed76" r="15.491665" stroke="#282828"/><circle cx="260.889419" cy="265.560746" fill="#75c5ef" r="15.491665" stroke="#282828"/><circle cx="85.479927" cy="136.688246" fill="#feed76" r="15.491665" stroke="#282828"/><circle cx="260.889419" cy="136.688246" fill="#fff" r="15.491665" stroke="#282828"/><circle cx="173.184673" cy="136.688246" fill="#75c5ef" r="15.491665" stroke="#282828"/><circle cx="85.479927" cy="201.124496" fill="#75c5ef" r="15.491665" stroke="#282828"/><circle cx="260.889419" cy="201.124496" fill="#feed76" r="15.491665" stroke="#282828"/><circle cx="173.184673" cy="201.124496" fill="#fff" r="15.491665" stroke="#282828"/></g></g></svg>